<svg width="175" height="104" viewBox="0 0 175 104" fill="none" xmlns="http://www.w3.org/2000/svg">
<path d="M114.5 19.2C114.5 20.2 114.1 21.5 113.3 23.2C112.5 24.9 111.1 27.2 109.3 29.9C105 36.2 100.4 40.8 95.4 43.9C90.4 47 84.8 48.5 78.8 48.5C72.6 48.5 67.5 47 63.6 44.1C59.7 41.2 57.7 37.4 57.7 32.9C57.7 28.9 59 25.1 61.7 21.5C64.4 17.9 68.2 14.7 73.2 11.9C79.1 8.6 86.2 6.3 94.4 4.8C102.6 3.3 113.3 2.6 126.5 2.6C127.5 2.6 130 2.6 134.2 2.7C138.4 2.8 142 2.8 145.1 2.8C153.2 2.8 161.4 2.3 169.5 1.3C171.1 1.1 172.1 1 172.5 1C172.9 1 173.3 1.1 173.6 1.3C173.9 1.5 174 1.8 174 2.1C174 3.8 171.7 5.7 167 7.8C162.3 9.9 157.1 11 151.2 11C147.3 11 140.4 10.4 130.4 9.2C120.4 8 112.4 7.4 106.3 7.4C92.7 7.4 81.5 9.8 72.9 14.4C64.3 19 59.9 24.9 59.9 31.9C59.9 35.1 61.4 37.8 64.3 40C67.2 42.2 70.9 43.3 75.4 43.3C81.1 43.3 86.8 41.8 92.4 38.8C98 35.8 103.2 31.6 108 26C109.3 24.5 110.6 22.8 111.9 20.9C113.2 19 114 18.1 114.3 18.1C114.4 18.1 114.5 18.1 114.5 18.3C114.5 18.5 114.5 18.7 114.5 19.2ZM100.4 58.3C92.4 60.9 85.1 65.5 78.3 72.1C76.6 73.7 75.5 74.6 75.1 74.6C75 74.6 74.9 74.5 74.9 74.4C74.9 74.3 74.8 74.2 74.8 74.1C74.8 73.4 75.4 72.4 76.6 71C77.8 69.7 79.6 68 82.1 65.9C84.8 63.7 87.8 61.7 91 60C94.3 58.3 98 56.7 102.2 55.4C108.9 43.5 116 33.5 123.7 25.5C131.3 17.4 136.7 13.3 139.7 13.3C139.9 13.3 140.1 13.3 140.1 13.3C140.1 13.3 140.2 13.4 140.2 13.6C140.2 13.7 139.8 14.1 139 14.8C130.5 23 122.1 36 113.9 53.7C121.6 52.8 129.4 50.2 137.3 45.8C139.2 44.7 140.3 44.2 140.7 44.2C141 44.2 141.3 44.3 141.5 44.4C141.7 44.5 141.8 44.7 141.8 44.9C141.8 45.1 141.3 45.8 140.2 47C135.3 52.7 130.9 59.3 127.1 66.7C126.9 67.2 126.6 68 126.1 68.9C125.1 71 124.2 72.3 123.3 72.9C122 73.8 120.4 74.6 118.5 75.3C116.7 76 115.5 76.4 114.9 76.4C114.7 76.4 114.6 76.3 114.4 76C114.2 75.7 114.2 75.4 114.2 75C114.2 73.7 115.9 70.6 119.4 65.7C122.9 60.8 127.1 55.7 132.1 50.6C129 52 125.8 53.1 122.6 54C119.4 54.9 116 55.5 112.4 55.8C103.7 71.6 93.2 83.4 81.1 91.2C68.9 99 55 102.9 39.1 102.9C27.3 102.9 18 100.3 11.2 95.1C4.4 89.9 1 82.9 1 73.9C1 64.5 4.6 56.6 11.8 50.2C19 43.8 27.9 40.6 38.6 40.6C46.8 40.6 53.5 42.6 58.7 46.6C63.9 50.6 66.5 55.7 66.5 61.9C66.5 68.5 63.6 74.3 57.7 79.3C51.8 84.3 44.8 86.9 36.7 86.9C32.2 86.9 28.2 86.2 24.5 84.8C20.8 83.4 19 82.2 19 81.1C19 81 19.1 80.8 19.2 80.8C19.3 80.8 19.5 80.7 19.8 80.7C20 80.7 20.6 80.9 21.6 81.4C26.5 83.8 31.4 84.9 36.3 84.9C44 84.9 50.5 82.8 55.8 78.7C61.1 74.5 63.8 69.6 63.8 63.7C63.8 58.5 61.8 54.4 57.9 51.2C54 48 48.7 46.5 42.1 46.5C31.8 46.5 22.8 49.4 15.2 55.4C7.7 61.2 4 68.1 4 76C4 83.5 7.2 89.6 13.6 94.3C20 99 28.4 101.3 38.9 101.3C52.3 101.3 63.9 97.9 73.7 91.1C83.4 84.3 92.3 73.4 100.4 58.3Z" fill="#272F35" stroke="#2D2D2D" stroke-miterlimit="10"/>
<path d="M114.5 19.2C114.5 20.2 114.1 21.5 113.3 23.2C112.5 24.9 111.1 27.2 109.3 29.9C105 36.2 100.4 40.8 95.4 43.9C90.4 47 84.8 48.5 78.8 48.5C72.6 48.5 67.5 47 63.6 44.1C59.7 41.2 57.7 37.4 57.7 32.9C57.7 28.9 59 25.1 61.7 21.5C64.4 17.9 68.2 14.7 73.2 11.9C79.1 8.6 86.2 6.3 94.4 4.8C102.6 3.3 113.3 2.6 126.5 2.6C127.5 2.6 130 2.6 134.2 2.7C138.4 2.8 142 2.8 145.1 2.8C153.2 2.8 161.4 2.3 169.5 1.3C171.1 1.1 172.1 1 172.5 1C172.9 1 173.3 1.1 173.6 1.3C173.9 1.5 174 1.8 174 2.1C174 3.8 171.7 5.7 167 7.8C162.3 9.9 157.1 11 151.2 11C147.3 11 140.4 10.4 130.4 9.2C120.4 8 112.4 7.4 106.3 7.4C92.7 7.4 81.5 9.8 72.9 14.4C64.3 19 59.9 24.9 59.9 31.9C59.9 35.1 61.4 37.8 64.3 40C67.2 42.2 70.9 43.3 75.4 43.3C81.1 43.3 86.8 41.8 92.4 38.8C98 35.8 103.2 31.6 108 26C109.3 24.5 110.6 22.8 111.9 20.9C113.2 19 114 18.1 114.3 18.1C114.4 18.1 114.5 18.1 114.5 18.3C114.5 18.5 114.5 18.7 114.5 19.2ZM100.4 58.3C92.4 60.9 85.1 65.5 78.3 72.1C76.6 73.7 75.5 74.6 75.1 74.6C75 74.6 74.9 74.5 74.9 74.4C74.9 74.3 74.8 74.2 74.8 74.1C74.8 73.4 75.4 72.4 76.6 71C77.8 69.7 79.6 68 82.1 65.9C84.8 63.7 87.8 61.7 91 60C94.3 58.3 98 56.7 102.2 55.4C108.9 43.5 116 33.5 123.7 25.5C131.3 17.4 136.7 13.3 139.7 13.3C139.9 13.3 140.1 13.3 140.1 13.3C140.1 13.3 140.2 13.4 140.2 13.6C140.2 13.7 139.8 14.1 139 14.8C130.5 23 122.1 36 113.9 53.7C121.6 52.8 129.4 50.2 137.3 45.8C139.2 44.7 140.3 44.2 140.7 44.2C141 44.2 141.3 44.3 141.5 44.4C141.7 44.5 141.8 44.7 141.8 44.9C141.8 45.1 141.3 45.8 140.2 47C135.3 52.7 130.9 59.3 127.1 66.7C126.9 67.2 126.6 68 126.1 68.9C125.1 71 124.2 72.3 123.3 72.9C122 73.8 120.4 74.6 118.5 75.3C116.7 76 115.5 76.4 114.9 76.4C114.7 76.4 114.6 76.3 114.4 76C114.2 75.7 114.2 75.4 114.2 75C114.2 73.7 115.9 70.6 119.4 65.7C122.9 60.8 127.1 55.7 132.1 50.6C129 52 125.8 53.1 122.6 54C119.4 54.9 116 55.5 112.4 55.8C103.7 71.6 93.2 83.4 81.1 91.2C68.9 99 55 102.9 39.1 102.9C27.3 102.9 18 100.3 11.2 95.1C4.4 89.9 1 82.9 1 73.9C1 64.5 4.6 56.6 11.8 50.2C19 43.8 27.9 40.6 38.6 40.6C46.8 40.6 53.5 42.6 58.7 46.6C63.9 50.6 66.5 55.7 66.5 61.9C66.5 68.5 63.6 74.3 57.7 79.3C51.8 84.3 44.8 86.9 36.7 86.9C32.2 86.9 28.2 86.2 24.5 84.8C20.8 83.4 19 82.2 19 81.1C19 81 19.1 80.8 19.2 80.8C19.3 80.8 19.5 80.7 19.8 80.7C20 80.7 20.6 80.9 21.6 81.4C26.5 83.8 31.4 84.9 36.3 84.9C44 84.9 50.5 82.8 55.8 78.7C61.1 74.5 63.8 69.6 63.8 63.7C63.8 58.5 61.8 54.4 57.9 51.2C54 48 48.7 46.5 42.1 46.5C31.8 46.5 22.8 49.4 15.2 55.4C7.7 61.2 4 68.1 4 76C4 83.5 7.2 89.6 13.6 94.3C20 99 28.4 101.3 38.9 101.3C52.3 101.3 63.9 97.9 73.7 91.1C83.4 84.3 92.3 73.4 100.4 58.3Z" fill="#272F35" stroke="#2D2D2D" stroke-width="1.0001" stroke-miterlimit="22.9256"/>
</svg>
